solid OpenSCAD_Model
  facet normal 0 1 0
    outer loop
      vertex 20 0 12.5
      vertex 20 0 0
      vertex 10 0 12.25
    endloop
  endfacet
  facet normal 0 1 0
    outer loop
      vertex 0 0 0
      vertex 10 0 12.25
      vertex 20 0 0
    endloop
  endfacet
  facet normal 0 1 0
    outer loop
      vertex 10 0 12.25
      vertex 0 0 0
      vertex 0 0 12.5
    endloop
  endfacet
  facet normal 0 -1 0
    outer loop
      vertex 0 -10 12.5
      vertex 0 -10 0
      vertex 10 -10 12.25
    endloop
  endfacet
  facet normal 0 -1 0
    outer loop
      vertex 20 -10 0
      vertex 10 -10 12.25
      vertex 0 -10 0
    endloop
  endfacet
  facet normal 0 -1 0
    outer loop
      vertex 10 -10 12.25
      vertex 20 -10 0
      vertex 20 -10 12.5
    endloop
  endfacet
  facet normal -0.0249922 0 0.999688
    outer loop
      vertex 10 0 12.25
      vertex 20 -10 12.5
      vertex 20 0 12.5
    endloop
  endfacet
  facet normal -0.0249922 0 0.999688
    outer loop
      vertex 20 -10 12.5
      vertex 10 0 12.25
      vertex 10 -10 12.25
    endloop
  endfacet
  facet normal 0.0249922 0 0.999688
    outer loop
      vertex 0 0 12.5
      vertex 10 -10 12.25
      vertex 10 0 12.25
    endloop
  endfacet
  facet normal 0.0249922 0 0.999688
    outer loop
      vertex 10 -10 12.25
      vertex 0 0 12.5
      vertex 0 -10 12.5
    endloop
  endfacet
  facet normal -1 0 0
    outer loop
      vertex 0 -10 0
      vertex 0 0 12.5
      vertex 0 0 0
    endloop
  endfacet
  facet normal -1 -0 0
    outer loop
      vertex 0 0 12.5
      vertex 0 -10 0
      vertex 0 -10 12.5
    endloop
  endfacet
  facet normal 0 0 -1
    outer loop
      vertex 0 -10 0
      vertex 20 0 0
      vertex 20 -10 0
    endloop
  endfacet
  facet normal -0 0 -1
    outer loop
      vertex 20 0 0
      vertex 0 -10 0
      vertex 0 0 0
    endloop
  endfacet
  facet normal 1 -0 0
    outer loop
      vertex 20 -10 12.5
      vertex 20 0 0
      vertex 20 0 12.5
    endloop
  endfacet
  facet normal 1 0 0
    outer loop
      vertex 20 0 0
      vertex 20 -10 12.5
      vertex 20 -10 0
    endloop
  endfacet
  facet normal 0 1 0
    outer loop
      vertex 44 0 12.501
      vertex 44 0 0.000999451
      vertex 34 0 12.001
    endloop
  endfacet
  facet normal 0 1 0
    outer loop
      vertex 24 0 0.000999451
      vertex 34 0 12.001
      vertex 44 0 0.000999451
    endloop
  endfacet
  facet normal 0 1 0
    outer loop
      vertex 34 0 12.001
      vertex 24 0 0.000999451
      vertex 24 0 12.501
    endloop
  endfacet
  facet normal 0 -1 0
    outer loop
      vertex 24 -10 12.501
      vertex 24 -10 0.000999451
      vertex 34 -10 12.001
    endloop
  endfacet
  facet normal 0 -1 0
    outer loop
      vertex 44 -10 0.000999451
      vertex 34 -10 12.001
      vertex 24 -10 0.000999451
    endloop
  endfacet
  facet normal 0 -1 0
    outer loop
      vertex 34 -10 12.001
      vertex 44 -10 0.000999451
      vertex 44 -10 12.501
    endloop
  endfacet
  facet normal -0.0499376 0 0.998752
    outer loop
      vertex 34 0 12.001
      vertex 44 -10 12.501
      vertex 44 0 12.501
    endloop
  endfacet
  facet normal -0.0499376 0 0.998752
    outer loop
      vertex 44 -10 12.501
      vertex 34 0 12.001
      vertex 34 -10 12.001
    endloop
  endfacet
  facet normal 0.0499376 0 0.998752
    outer loop
      vertex 24 0 12.501
      vertex 34 -10 12.001
      vertex 34 0 12.001
    endloop
  endfacet
  facet normal 0.0499376 0 0.998752
    outer loop
      vertex 34 -10 12.001
      vertex 24 0 12.501
      vertex 24 -10 12.501
    endloop
  endfacet
  facet normal -1 0 0
    outer loop
      vertex 24 -10 0.000999451
      vertex 24 0 12.501
      vertex 24 0 0.000999451
    endloop
  endfacet
  facet normal -1 -0 0
    outer loop
      vertex 24 0 12.501
      vertex 24 -10 0.000999451
      vertex 24 -10 12.501
    endloop
  endfacet
  facet normal 0 0 -1
    outer loop
      vertex 24 -10 0.000999451
      vertex 44 0 0.000999451
      vertex 44 -10 0.000999451
    endloop
  endfacet
  facet normal -0 0 -1
    outer loop
      vertex 44 0 0.000999451
      vertex 24 -10 0.000999451
      vertex 24 0 0.000999451
    endloop
  endfacet
  facet normal 1 -0 0
    outer loop
      vertex 44 -10 12.501
      vertex 44 0 0.000999451
      vertex 44 0 12.501
    endloop
  endfacet
  facet normal 1 0 0
    outer loop
      vertex 44 0 0.000999451
      vertex 44 -10 12.501
      vertex 44 -10 0.000999451
    endloop
  endfacet
  facet normal 0 1 0
    outer loop
      vertex 68 0 12.502
      vertex 68 0 0.00199986
      vertex 58 0 11.752
    endloop
  endfacet
  facet normal 0 1 0
    outer loop
      vertex 48 0 0.00199986
      vertex 58 0 11.752
      vertex 68 0 0.00199986
    endloop
  endfacet
  facet normal 0 1 0
    outer loop
      vertex 58 0 11.752
      vertex 48 0 0.00199986
      vertex 48 0 12.502
    endloop
  endfacet
  facet normal 0 -1 0
    outer loop
      vertex 48 -10 12.502
      vertex 48 -10 0.00199986
      vertex 58 -10 11.752
    endloop
  endfacet
  facet normal 0 -1 0
    outer loop
      vertex 68 -10 0.00199986
      vertex 58 -10 11.752
      vertex 48 -10 0.00199986
    endloop
  endfacet
  facet normal 0 -1 0
    outer loop
      vertex 58 -10 11.752
      vertex 68 -10 0.00199986
      vertex 68 -10 12.502
    endloop
  endfacet
  facet normal -0.0747899 0 0.997199
    outer loop
      vertex 58 0 11.752
      vertex 68 -10 12.502
      vertex 68 0 12.502
    endloop
  endfacet
  facet normal -0.0747899 0 0.997199
    outer loop
      vertex 68 -10 12.502
      vertex 58 0 11.752
      vertex 58 -10 11.752
    endloop
  endfacet
  facet normal 0.0747899 0 0.997199
    outer loop
      vertex 48 0 12.502
      vertex 58 -10 11.752
      vertex 58 0 11.752
    endloop
  endfacet
  facet normal 0.0747899 0 0.997199
    outer loop
      vertex 58 -10 11.752
      vertex 48 0 12.502
      vertex 48 -10 12.502
    endloop
  endfacet
  facet normal -1 0 0
    outer loop
      vertex 48 -10 0.00199986
      vertex 48 0 12.502
      vertex 48 0 0.00199986
    endloop
  endfacet
  facet normal -1 -0 0
    outer loop
      vertex 48 0 12.502
      vertex 48 -10 0.00199986
      vertex 48 -10 12.502
    endloop
  endfacet
  facet normal 0 0 -1
    outer loop
      vertex 48 -10 0.00199986
      vertex 68 0 0.00199986
      vertex 68 -10 0.00199986
    endloop
  endfacet
  facet normal -0 0 -1
    outer loop
      vertex 68 0 0.00199986
      vertex 48 -10 0.00199986
      vertex 48 0 0.00199986
    endloop
  endfacet
  facet normal 1 -0 0
    outer loop
      vertex 68 -10 12.502
      vertex 68 0 0.00199986
      vertex 68 0 12.502
    endloop
  endfacet
  facet normal 1 0 0
    outer loop
      vertex 68 0 0.00199986
      vertex 68 -10 12.502
      vertex 68 -10 0.00199986
    endloop
  endfacet
endsolid OpenSCAD_Model
